<?xml version="1.0" encoding="UTF-8" standalone="no"?>
<!-- Created with Inkscape (http://www.inkscape.org/) -->

<svg
   xmlns:dc="http://purl.org/dc/elements/1.1/"
   xmlns:cc="http://creativecommons.org/ns#"
   xmlns:rdf="http://www.w3.org/1999/02/22-rdf-syntax-ns#"
   xmlns:svg="http://www.w3.org/2000/svg"
   xmlns="http://www.w3.org/2000/svg"
   xmlns:sodipodi="http://sodipodi.sourceforge.net/DTD/sodipodi-0.dtd"
   xmlns:inkscape="http://www.inkscape.org/namespaces/inkscape"
   width="76.270493mm"
   height="44.077259mm"
   viewBox="0 0 76.270493 44.077259"
   version="1.1"
   id="svg8"
   sodipodi:docname="logo_red.svg"
   inkscape:version="0.92.3 (d244b95, 2018-08-02)">
  <defs
     id="defs2" />
  <sodipodi:namedview
     id="base"
     pagecolor="#ffffff"
     bordercolor="#666666"
     borderopacity="1.0"
     inkscape:pageopacity="0.0"
     inkscape:pageshadow="2"
     inkscape:zoom="1.4"
     inkscape:cx="80.179276"
     inkscape:cy="81.609097"
     inkscape:document-units="mm"
     inkscape:current-layer="layer1"
     showgrid="false"
     inkscape:window-width="1366"
     inkscape:window-height="705"
     inkscape:window-x="0"
     inkscape:window-y="30"
     inkscape:window-maximized="1"
     fit-margin-top="0"
     fit-margin-left="0"
     fit-margin-right="0"
     fit-margin-bottom="0" />
  <metadata
     id="metadata5">
    <rdf:RDF>
      <cc:Work
         rdf:about="">
        <dc:format>image/svg+xml</dc:format>
        <dc:type
           rdf:resource="http://purl.org/dc/dcmitype/StillImage" />
        <dc:title></dc:title>
      </cc:Work>
    </rdf:RDF>
  </metadata>
  <g
     inkscape:label="Layer 1"
     inkscape:groupmode="layer"
     id="layer1"
     transform="translate(-46.056395,-114.87956)">
    <path
       style="fill:#b30020;fill-opacity:1;stroke-width:0.26458335"
       d="m 53.029503,158.72369 c -2.768179,-0.5901 -5.147248,-2.51917 -6.075809,-4.92658 -0.450214,-1.16723 -0.500424,-2.08054 -0.500424,-9.10262 v -7.80521 h 1.719792 1.719792 l 0.132291,7.27605 c 0.11706,6.43828 0.189891,7.392 0.632547,8.28316 1.526192,3.07256 6.124378,3.79732 8.484505,1.33732 1.625354,-1.69413 1.71868,-2.21643 1.725054,-9.65424 0.0047,-5.51958 0.07547,-6.83843 0.380362,-7.09147 0.22091,-0.18334 1.007773,-0.27803 1.91823,-0.23083 l 1.543678,0.08 0.07481,2.97657 c 0.04115,1.63711 0.17861,2.97656 0.305473,2.97656 0.126865,0 0.589888,-0.63652 1.028946,-1.41448 1.841478,-3.26293 4.971618,-4.83983 9.169641,-4.61949 2.92087,0.1533 5.10316,1.18633 6.9985,3.31286 l 1.32826,1.49027 1.57794,-1.50511 c 1.712,-1.63297 4.238619,-2.98914 5.956719,-3.19729 0.59201,-0.0717 2.4456,-0.26305 4.11909,-0.42518 10.9153,-1.05746 15.08848,-3.7961 15.07866,-9.89533 -0.005,-2.87014 -1.70915,-5.48543 -4.49538,-6.89732 -1.78676,-0.90542 -2.84305,-0.88349 -3.18696,0.0662 -0.7429,2.05143 -2.23771,3.24115 -4.07229,3.24115 -4.81642,0 -5.63801,-6.56204 -0.99572,-7.9529 1.40152,-0.41991 2.84567,-0.0395 4.1296,1.08782 2.1642,1.9002 5.0879,2.63174 10.51799,2.63174 2.29059,0 4.75986,0.12764 5.48726,0.28364 4.70377,1.00878 6.17235,6.56782 2.62929,9.95274 -1.06418,1.01669 -1.84213,1.32947 -4.44939,1.78893 -2.70396,0.4765 -4.7611,1.44625 -6.44373,3.03761 -2.47101,2.33698 -3.22948,4.71484 -3.88797,12.18917 -0.46872,5.32021 -1.19348,7.28124 -3.63831,9.84439 -2.1341,2.23738 -3.7512,2.94748 -7.01037,3.07839 -1.43216,0.0575 -3.34113,-0.0391 -4.24216,-0.21477 -2.04515,-0.39868 -4.525369,-1.69339 -5.440099,-2.83981 -1.08016,-1.35376 -1.35751,-1.15132 -1.35751,0.99084 v 1.86322 l -2.05052,-0.0773 -2.05052,-0.0773 -0.13256,-7.14375 c -0.14155,-7.62748 -0.23686,-8.2029 -1.5936,-9.62031 -1.92183,-2.00777 -6.046322,-1.72524 -7.73021,0.52953 -1.39151,1.86326 -1.384131,1.81861 -1.523839,9.22307 l -0.132291,7.01146 -1.777908,0.0781 c -2.095323,0.092 -2.021155,0.21478 -2.12475,-3.51764 l -0.06609,-2.38125 -0.619864,1.16206 c -0.952682,1.78601 -2.803424,3.60365 -4.344124,4.26644 -1.53823,0.66173 -4.867703,0.92493 -6.71603,0.53091 z m 44.620647,-4.46275 c 1.61303,-0.83563 2.81932,-2.02806 3.6553,-3.61332 0.96239,-1.82494 1.01547,-5.20155 0.11064,-7.03788 -1.40432,-2.85002 -4.1902,-4.58625 -7.33782,-4.5731 -3.14168,0.0131 -5.61253,1.58551 -7.036379,4.47776 -1.06947,2.17239 -1.15149,4.55809 -0.23034,6.69938 0.71039,1.65132 2.922319,3.77623 4.550329,4.37131 1.68869,0.61725 4.77853,0.45798 6.28827,-0.32415 z M 52.219814,135.40572 c -0.862107,-0.24928 -1.755517,-1.19944 -1.506561,-1.60226 0.248196,-0.40159 1.172469,-0.23103 1.978881,0.36518 0.602318,0.44531 1.139225,0.58164 2.228626,0.5659 1.657054,-0.024 2.688905,-0.57593 2.938938,-1.57214 0.252264,-1.0051 -0.144565,-1.20305 -1.485565,-0.74104 -1.311276,0.45177 -3.048878,0.3174 -4.306681,-0.33303 -1.715023,-0.88687 -2.373949,-3.76241 -1.203207,-5.25077 1.208408,-1.53624 3.97291,-2.15085 5.953058,-1.32349 0.694814,0.29031 1.048288,0.32076 1.299855,0.11198 0.19004,-0.15772 0.619972,-0.24786 0.955403,-0.20031 0.596908,0.0846 0.61144,0.16008 0.6834,3.54882 0.09416,4.43414 -0.160881,5.31068 -1.783232,6.12879 -1.275741,0.64331 -4.066516,0.79 -5.752915,0.30237 z m 4.453897,-4.09026 c 0.972017,-0.50265 1.6087,-1.88933 1.383793,-3.01386 -0.419604,-2.09803 -3.462552,-2.89393 -5.183913,-1.3559 -0.732074,0.65411 -0.864071,0.953 -0.864071,1.9566 0,2.3249 2.416824,3.57532 4.664191,2.41316 z m 5.575185,1.41986 c -0.222301,-0.2223 -0.3175,-1.68025 -0.3175,-4.86239 0,-4.85794 0.137265,-5.38288 1.310219,-5.01059 0.520128,0.16508 0.541864,0.36648 0.541864,5.02063 0,4.17727 -0.05795,4.87089 -0.418515,5.00926 -0.590725,0.22668 -0.755674,0.20349 -1.116068,-0.15691 z m -16.026409,-0.35128 c -0.09135,-0.23806 -0.166092,-1.83726 -0.166092,-3.55379 0,-3.28393 0.198288,-3.8684 1.244061,-3.667 0.430876,0.083 0.475731,0.44052 0.475731,3.79216 v 3.70054 l -0.693804,0.0805 c -0.45209,0.0524 -0.751669,-0.0703 -0.859896,-0.35237 z m 22.145681,-0.10861 c -2.869626,-1.3029 -2.914441,-5.10997 -0.07728,-6.56479 1.474327,-0.756 4.171495,-0.82019 5.541483,-0.13188 1.6219,0.81487 2.75102,3.2073 1.70343,3.6093 -0.23019,0.0883 -1.949566,0.1606 -3.820848,0.1606 -2.188702,0 -3.466481,0.1038 -3.582175,0.29099 -0.301302,0.48752 0.798745,1.67262 1.893679,2.04009 1.294325,0.43439 2.511927,0.21873 3.510864,-0.62182 1.188159,-0.99977 2.7181,-0.72717 1.84446,0.32863 -1.133826,1.37024 -4.901702,1.84776 -7.013614,0.88888 z m 5.608961,-4.26132 c 0.31193,-0.50472 -0.651674,-1.54954 -1.725914,-1.87139 -1.770314,-0.5304 -4.311695,0.61048 -3.877922,1.74087 0.125979,0.3283 0.664911,0.40673 2.794601,0.40673 1.547707,0 2.709098,-0.11419 2.809235,-0.27621 z m 4.942442,4.33271 c -0.92213,-0.45447 -1.50908,-1.2487 -1.24209,-1.68071 0.26412,-0.42735 1.07402,-0.29361 1.57511,0.26009 0.66582,0.73572 2.11898,1.15313 3.26741,0.93853 1.17287,-0.21916 1.6364,-0.56367 1.6364,-1.21624 0,-0.64089 -0.54484,-0.89592 -2.77813,-1.30037 -2.23116,-0.40406 -3.2362,-0.87686 -3.61057,-1.69851 -0.38355,-0.84182 0.1,-1.68259 1.24212,-2.15981 1.06795,-0.44622 3.936,-0.49225 5.11268,-0.0821 1.00608,0.35072 1.59819,1.24404 1.0534,1.58926 -0.50783,0.3218 -0.60032,0.30047 -1.38985,-0.32058 -1.4424,-1.13459 -4.51787,-0.85478 -4.33947,0.39481 0.0639,0.44754 0.39305,0.62757 1.66711,0.91184 4.52694,1.01008 5.19846,1.44258 4.78674,3.08299 -0.38068,1.51676 -4.84146,2.33517 -6.98086,1.28076 z m 9.394109,0.27718 c -0.10369,-0.10369 -0.18853,-1.77977 -0.18853,-3.72462 0,-3.02968 0.062,-3.55987 0.43283,-3.70217 0.23806,-0.0914 0.62502,-0.0449 0.8599,0.10328 0.35835,0.22604 0.42706,0.83941 0.42706,3.81242 v 3.54304 l -0.67136,0.0783 c -0.36925,0.0431 -0.7562,-0.007 -0.8599,-0.11024 z m 5.04035,-0.24992 c -1.23374,-0.66941 -1.33403,-2.22135 -0.19829,-3.06842 0.52428,-0.39103 4.38078,-1.14015 6.5625,-1.27475 0.046,-0.003 0.046,-0.33259 0,-0.73277 -0.17168,-1.49206 -3.45271,-1.7875 -5.03791,-0.45364 -0.86331,0.72643 -0.9622,0.75172 -1.5281,0.39097 -0.52689,-0.33588 -0.0942,-1.05567 0.95045,-1.581 0.99389,-0.49982 4.39873,-0.68495 5.65808,-0.30763 1.63509,0.48988 1.79964,0.85962 1.89727,4.26335 0.0793,2.76406 0.0437,3.04804 -0.39253,3.13205 -0.26385,0.0508 -0.70476,-0.11127 -0.9798,-0.36017 -0.46571,-0.42146 -0.57382,-0.42306 -1.57317,-0.0232 -1.35706,0.54299 -4.37005,0.55155 -5.3585,0.0152 z m 5.56386,-1.08988 c 0.46877,-0.34842 0.7459,-0.82899 0.80126,-1.38943 l 0.0846,-0.85677 -1.80442,0.18874 c -2.55012,0.26675 -3.639,0.66101 -3.73771,1.35336 -0.20184,1.41577 3.03933,1.90589 4.65624,0.7041 z m -52.523319,-7.25945 c -0.449272,-0.44927 -0.09822,-1.02609 0.624478,-1.02609 0.73873,0 1.144525,0.73446 0.597255,1.08098 -0.499656,0.31638 -0.866964,0.29988 -1.221733,-0.0549 z m 42.022749,0.0549 c -0.551699,-0.34933 -0.13887,-1.08098 0.60995,-1.08098 0.80123,0 1.10459,0.42092 0.67576,0.93763 -0.36381,0.43836 -0.75153,0.48159 -1.28571,0.14335 z"
       id="path3778"
       inkscape:connector-curvature="0" />
  </g>
</svg>
